<svg width="143" height="90" viewBox="0 0 143 90" fill="none" xmlns="http://www.w3.org/2000/svg">
<mask id="path-1-inside-1_19_32" fill="white">
<path fill-rule="evenodd" clip-rule="evenodd" d="M34.6128 13.5325C33.1138 14.6483 30.8385 19.289 29.634 23.7015C29.286 24.9441 28.9113 25.9331 28.7774 25.9331C28.6703 25.9331 28.5633 25.8063 28.5633 25.6541C28.5633 25.502 28.135 24.5637 27.6264 23.5747C26.6092 21.6221 25.4047 20.3541 24.5481 20.3541C23.1294 20.3541 20.988 24.2087 19.6228 29.2298C18.5521 33.2365 17.9097 36.3303 18.0703 36.7868C18.2577 37.3193 19.1678 37.1418 19.3016 36.5078C20.2652 31.8164 21.0415 28.8747 21.8981 26.5671C23.1829 23.1436 23.986 21.7489 24.6552 21.7489C25.2708 21.7489 26.4754 23.8537 27.5729 26.9221C28.2688 28.7733 28.3224 29.1283 28.0547 30.1934C27.4926 32.5772 27.1713 35.4681 27.1446 38.4604C27.091 41.5035 27.091 41.5542 28.0011 43.1011C28.5097 43.9887 29.0183 44.6988 29.1254 44.6988C29.5805 44.6988 29.3663 45.637 28.7774 46.1442C26.3415 48.2744 22.9956 48.249 20.64 46.0935C19.8905 45.4088 19.4087 44.6988 19.1945 43.938C18.6324 41.9093 18.0167 41.3514 17.6955 42.5686C17.3475 43.9126 18.8733 46.626 20.64 47.7672C21.6036 48.3758 21.6036 48.4012 21.6036 50.2017V52.0275L18.2041 52.1036C14.992 52.1797 14.7778 52.205 14.7778 52.6869C14.7778 53.194 14.992 53.194 35.63 53.2701C47.1134 53.2955 56.616 53.2194 56.7231 53.118C56.8569 52.9912 56.8837 52.7122 56.7766 52.484C56.6427 52.1036 56.1342 52.0529 53.1629 52.0529H49.7099V50.151C49.7099 49.0352 49.8169 48.249 49.9776 48.249C50.5397 48.249 52.7614 46.0681 53.2165 45.0538C53.9392 43.5576 54.0998 41.5796 53.7251 38.8662C52.8952 32.4504 51.2624 26.3135 49.576 23.1436C48.7998 21.6728 47.5149 20.3541 46.8457 20.3541C45.6679 20.3541 44.4098 22.0278 42.8305 25.6795C42.5629 26.2881 42.5361 26.2628 42.2416 25.1723C41.626 22.9407 40.0199 18.4268 39.3775 17.1082C38.2532 14.7751 36.5936 13 35.5497 13C35.4158 13 35.0143 13.2282 34.6128 13.5325ZM36.2724 14.7244C36.8881 15.257 38.7351 18.5029 38.7351 19.0862C38.7351 19.3144 38.8421 19.5933 38.976 19.7201C39.2972 20.0752 40.475 23.7522 41.278 26.9982C42.8038 33.2111 43.3927 39.0944 42.6699 41.4021C41.8134 44.1662 39.4578 45.9414 36.3527 46.1696C33.3547 46.3725 31.0527 45.3327 29.634 43.1265C28.5097 41.4021 28.3224 40.1341 28.59 36.5078C28.9648 31.6135 30.3567 25.223 31.9093 20.9881C32.4178 19.6187 33.4886 17.1082 33.8098 16.5249C34.131 15.9163 35.4694 14.268 35.63 14.268C35.6835 14.268 35.9512 14.4708 36.2724 14.7244ZM47.1669 21.8249C48.2109 22.535 50.3791 28.3422 51.423 33.3379C52.2261 36.9896 52.7346 41.6557 52.4937 42.9236C51.6372 47.2854 46.6583 49.1619 43.0714 46.4485C41.8937 45.561 41.8669 45.282 42.7235 44.0901C44.1689 42.1121 44.4634 40.7681 44.276 36.9389C44.1154 33.7437 44.1154 33.5154 44.624 33.0843C44.9184 32.8561 45.6144 32.6025 46.1765 32.5264C47.3008 32.3743 47.6488 31.7149 46.7922 31.2838C46.3907 31.081 45.9356 31.1063 45.0255 31.4106C44.3295 31.6135 43.6871 31.7403 43.6068 31.6389C43.4997 31.5628 43.4462 30.5992 43.4462 29.5341C43.4462 27.8857 43.6068 27.2264 44.4098 25.3752C45.3199 23.2704 46.3371 21.6221 46.7119 21.6221C46.8189 21.6221 47.0331 21.7235 47.1669 21.8249ZM32.8461 49.5677V52.0529H30.33C27.4658 52.0529 27.4658 52.0529 27.6264 49.6438C27.7067 48.6548 27.8673 48.2997 28.3491 47.9954C28.6703 47.7926 29.3128 47.26 29.7678 46.8289L30.5709 46.0428L31.6951 46.5753L32.8194 47.1079L32.8461 49.5677ZM43.5533 48.249C43.7139 48.249 43.8209 49.0098 43.8209 50.151V52.0529H41.278H38.7351V49.5677V47.1079L39.7522 46.5753L40.7426 46.0174L42.0007 47.1332C42.6967 47.7418 43.3927 48.249 43.5533 48.249ZM37.3967 49.7706V52.0529H35.7906H34.1845V49.7706V47.4883H35.7906H37.3967V49.7706ZM26.1542 50.4553V52.0529H24.7087C23.5042 52.0529 23.2097 51.9768 23.0759 51.5711C22.942 51.14 22.942 49.3141 23.1026 49.0098C23.1294 48.9337 23.8254 48.883 24.6552 48.883H26.1542V50.4553ZM48.3715 50.5313V52.0529H46.7922H45.2129L45.1058 50.5313L45.0255 49.0098H46.7119H48.3715V50.5313Z"/>
</mask>
<path fill-rule="evenodd" clip-rule="evenodd" d="M34.6128 13.5325C33.1138 14.6483 30.8385 19.289 29.634 23.7015C29.286 24.9441 28.9113 25.9331 28.7774 25.9331C28.6703 25.9331 28.5633 25.8063 28.5633 25.6541C28.5633 25.502 28.135 24.5637 27.6264 23.5747C26.6092 21.6221 25.4047 20.3541 24.5481 20.3541C23.1294 20.3541 20.988 24.2087 19.6228 29.2298C18.5521 33.2365 17.9097 36.3303 18.0703 36.7868C18.2577 37.3193 19.1678 37.1418 19.3016 36.5078C20.2652 31.8164 21.0415 28.8747 21.8981 26.5671C23.1829 23.1436 23.986 21.7489 24.6552 21.7489C25.2708 21.7489 26.4754 23.8537 27.5729 26.9221C28.2688 28.7733 28.3224 29.1283 28.0547 30.1934C27.4926 32.5772 27.1713 35.4681 27.1446 38.4604C27.091 41.5035 27.091 41.5542 28.0011 43.1011C28.5097 43.9887 29.0183 44.6988 29.1254 44.6988C29.5805 44.6988 29.3663 45.637 28.7774 46.1442C26.3415 48.2744 22.9956 48.249 20.64 46.0935C19.8905 45.4088 19.4087 44.6988 19.1945 43.938C18.6324 41.9093 18.0167 41.3514 17.6955 42.5686C17.3475 43.9126 18.8733 46.626 20.64 47.7672C21.6036 48.3758 21.6036 48.4012 21.6036 50.2017V52.0275L18.2041 52.1036C14.992 52.1797 14.7778 52.205 14.7778 52.6869C14.7778 53.194 14.992 53.194 35.63 53.2701C47.1134 53.2955 56.616 53.2194 56.7231 53.118C56.8569 52.9912 56.8837 52.7122 56.7766 52.484C56.6427 52.1036 56.1342 52.0529 53.1629 52.0529H49.7099V50.151C49.7099 49.0352 49.8169 48.249 49.9776 48.249C50.5397 48.249 52.7614 46.0681 53.2165 45.0538C53.9392 43.5576 54.0998 41.5796 53.7251 38.8662C52.8952 32.4504 51.2624 26.3135 49.576 23.1436C48.7998 21.6728 47.5149 20.3541 46.8457 20.3541C45.6679 20.3541 44.4098 22.0278 42.8305 25.6795C42.5629 26.2881 42.5361 26.2628 42.2416 25.1723C41.626 22.9407 40.0199 18.4268 39.3775 17.1082C38.2532 14.7751 36.5936 13 35.5497 13C35.4158 13 35.0143 13.2282 34.6128 13.5325ZM36.2724 14.7244C36.8881 15.257 38.7351 18.5029 38.7351 19.0862C38.7351 19.3144 38.8421 19.5933 38.976 19.7201C39.2972 20.0752 40.475 23.7522 41.278 26.9982C42.8038 33.2111 43.3927 39.0944 42.6699 41.4021C41.8134 44.1662 39.4578 45.9414 36.3527 46.1696C33.3547 46.3725 31.0527 45.3327 29.634 43.1265C28.5097 41.4021 28.3224 40.1341 28.59 36.5078C28.9648 31.6135 30.3567 25.223 31.9093 20.9881C32.4178 19.6187 33.4886 17.1082 33.8098 16.5249C34.131 15.9163 35.4694 14.268 35.63 14.268C35.6835 14.268 35.9512 14.4708 36.2724 14.7244ZM47.1669 21.8249C48.2109 22.535 50.3791 28.3422 51.423 33.3379C52.2261 36.9896 52.7346 41.6557 52.4937 42.9236C51.6372 47.2854 46.6583 49.1619 43.0714 46.4485C41.8937 45.561 41.8669 45.282 42.7235 44.0901C44.1689 42.1121 44.4634 40.7681 44.276 36.9389C44.1154 33.7437 44.1154 33.5154 44.624 33.0843C44.9184 32.8561 45.6144 32.6025 46.1765 32.5264C47.3008 32.3743 47.6488 31.7149 46.7922 31.2838C46.3907 31.081 45.9356 31.1063 45.0255 31.4106C44.3295 31.6135 43.6871 31.7403 43.6068 31.6389C43.4997 31.5628 43.4462 30.5992 43.4462 29.5341C43.4462 27.8857 43.6068 27.2264 44.4098 25.3752C45.3199 23.2704 46.3371 21.6221 46.7119 21.6221C46.8189 21.6221 47.0331 21.7235 47.1669 21.8249ZM32.8461 49.5677V52.0529H30.33C27.4658 52.0529 27.4658 52.0529 27.6264 49.6438C27.7067 48.6548 27.8673 48.2997 28.3491 47.9954C28.6703 47.7926 29.3128 47.26 29.7678 46.8289L30.5709 46.0428L31.6951 46.5753L32.8194 47.1079L32.8461 49.5677ZM43.5533 48.249C43.7139 48.249 43.8209 49.0098 43.8209 50.151V52.0529H41.278H38.7351V49.5677V47.1079L39.7522 46.5753L40.7426 46.0174L42.0007 47.1332C42.6967 47.7418 43.3927 48.249 43.5533 48.249ZM37.3967 49.7706V52.0529H35.7906H34.1845V49.7706V47.4883H35.7906H37.3967V49.7706ZM26.1542 50.4553V52.0529H24.7087C23.5042 52.0529 23.2097 51.9768 23.0759 51.5711C22.942 51.14 22.942 49.3141 23.1026 49.0098C23.1294 48.9337 23.8254 48.883 24.6552 48.883H26.1542V50.4553ZM48.3715 50.5313V52.0529H46.7922H45.2129L45.1058 50.5313L45.0255 49.0098H46.7119H48.3715V50.5313Z" fill="#EA7A66" stroke="#EA7A66" stroke-width="2" mask="url(#path-1-inside-1_19_32)"/>
<path d="M32.3256 30.2619L32.3256 30.2619L32.3247 30.2547C32.3222 30.236 32.3206 30.2201 32.3195 30.2065C32.3482 30.1984 32.3872 30.1895 32.4393 30.1806C33.3914 30.0538 34.2095 30.3193 35.0772 31.0938C35.3503 31.3531 35.5438 31.5845 35.66 31.7721C35.7646 31.941 35.7758 32.0243 35.7779 32.0399C35.7784 32.0434 35.7784 32.0435 35.7789 32.0405L35.7787 32.0417C35.769 32.1024 35.7568 32.1444 35.7463 32.1723C35.7125 32.1567 35.6627 32.1278 35.5981 32.0752C35.4867 31.9845 35.3544 31.8417 35.2143 31.6375C34.952 31.2454 34.7022 30.9368 34.3396 30.7398C33.9859 30.5477 33.5807 30.4936 33.0997 30.4557L33.0997 30.4555L33.0873 30.4549C32.8604 30.4426 32.6912 30.4264 32.5633 30.4048C32.4331 30.3829 32.3702 30.3592 32.3429 30.3451C32.3423 30.3448 32.3417 30.3445 32.3412 30.3442C32.3372 30.3319 32.3308 30.3068 32.3256 30.2619Z" fill="black" stroke="#EA7A66"/>
<path d="M38.9484 38.6979C38.735 38.7376 38.4928 38.8213 38.3005 38.9737C38.1868 38.9462 38.0848 38.9627 38.0305 38.9772C37.9384 39.0017 37.8684 39.0455 37.8323 39.0699C37.7898 39.0986 37.7512 39.1303 37.7185 39.1593C37.5936 39.27 37.448 39.4373 37.3127 39.6082C37.0455 39.9457 36.7201 40.4231 36.585 40.7591L36.5849 40.759L36.5821 40.7664C36.5448 40.8636 36.4779 40.8937 36.4329 40.8974C36.409 40.8993 36.3936 40.8938 36.386 40.8895C36.3818 40.8871 36.3722 40.8811 36.3619 40.8601C36.3619 40.8598 36.3619 40.8591 36.3618 40.8581C36.3604 40.8437 36.3531 40.7633 36.4213 40.5851C36.4959 40.3901 36.6343 40.1503 36.8285 39.8939C37.2189 39.3785 37.7743 38.8748 38.2986 38.5988C38.7979 38.3372 39.4085 38.3355 39.7925 38.4719C39.8837 38.5044 39.9497 38.5403 39.9929 38.5721C40.0061 38.5818 40.0161 38.5903 40.0236 38.5973C40.0175 38.6063 40.009 38.6178 39.997 38.6321C39.9786 38.6496 39.9301 38.6825 39.8513 38.7041C39.7669 38.7272 39.7015 38.7224 39.675 38.7149L39.675 38.7147L39.6634 38.7117C39.4297 38.6514 39.173 38.6562 38.9484 38.6979ZM37.6999 39.5001C37.6999 39.5019 37.6999 39.5036 37.6999 39.5053L37.6999 39.5001ZM40.0371 38.5714C40.0375 38.5713 40.0372 38.5734 40.035 38.578C40.0357 38.5738 40.0368 38.5715 40.0371 38.5714Z" fill="black" stroke="#EA7A66"/>
<path d="M21.1841 41.194C21.1713 41.1817 21.1604 41.1701 21.1512 41.1595C21.1932 41.1495 21.2551 41.1398 21.3438 41.1361C21.5865 41.1262 21.914 41.1701 22.2739 41.2692C22.6302 41.3673 22.9936 41.5127 23.3056 41.6876C23.6215 41.8648 23.8534 42.0547 23.983 42.2286C24.2307 42.5773 24.33 42.9667 24.3164 43.2341C24.3105 43.3493 24.2856 43.412 24.2711 43.4378C24.222 43.4363 24.1992 43.4224 24.1806 43.4052C24.1531 43.3799 24.1054 43.3169 24.0687 43.1797C23.9393 42.6602 23.5867 42.2217 23.1747 41.9186C22.7604 41.6137 22.2373 41.4093 21.7106 41.4093C21.5169 41.4093 21.3104 41.3155 21.1841 41.194Z" fill="black" stroke="#EA7A66"/>
<path d="M64.152 45V33.08H72.104V35H66.328V38.296H71.384V40.216H66.328V45H64.152ZM76.527 45V33.08H78.703V45H76.527ZM83.9958 45V33.08H88.4278C89.2384 33.08 89.9531 33.2293 90.5718 33.528C91.2011 33.816 91.6918 34.2427 92.0438 34.808C92.3958 35.3627 92.5718 36.04 92.5718 36.84C92.5718 37.6613 92.3744 38.36 91.9798 38.936C91.5958 39.512 91.0731 39.9387 90.4118 40.216L93.1478 45H90.6838L87.7558 39.768L89.1638 40.6H86.1718V45H83.9958ZM86.1718 38.68H88.4598C88.8544 38.68 89.1958 38.6053 89.4838 38.456C89.7718 38.296 89.9958 38.0773 90.1558 37.8C90.3158 37.5227 90.3958 37.2027 90.3958 36.84C90.3958 36.4667 90.3158 36.1467 90.1558 35.88C89.9958 35.6027 89.7718 35.3893 89.4838 35.24C89.1958 35.08 88.8544 35 88.4598 35H86.1718V38.68ZM97.5739 45V33.08H105.494V35H99.7499V38.056H105.174V39.976H99.7499V43.08H105.494V45H97.5739ZM110.09 45V33.08H118.042V35H112.266V38.296H117.322V40.216H112.266V45H110.09ZM122.465 45V33.08H124.641V43.08H129.745V45H122.465ZM135.755 45V39.72L131.739 33.08H134.219L137.291 38.264H136.411L139.467 33.08H141.947L137.947 39.704V45H135.755Z" fill="#18181B"/>
</svg>
